<svg width="73" height="78" viewBox="0 0 73 78" fill="none" xmlns="http://www.w3.org/2000/svg">
<path d="M48 52L59 63.5L70 75" stroke="#E27A11" stroke-width="6" stroke-linecap="round"/>
<path d="M48 75L59 63.5L70 52" stroke="#E27A11" stroke-width="6" stroke-linecap="round"/>
<path d="M18 3.03125L18 18.0312" stroke="#E27A11" stroke-width="6" stroke-linecap="round"/>
<path d="M47 3L47 18" stroke="#E27A11" stroke-width="6" stroke-linecap="round"/>
<path d="M5 33H60" stroke="#E27A11" stroke-width="5.5" stroke-linecap="round"/>
<path fill-rule="evenodd" clip-rule="evenodd" d="M11 12.5H54C57.0376 12.5 59.5 14.9624 59.5 18V38.25C59.5 39.7688 60.7312 41 62.25 41C63.7688 41 65 39.7688 65 38.25V18C65 11.9249 60.0751 7 54 7H11C4.92487 7 0 11.9249 0 18V63C0 69.0751 4.92487 74 11 74H36.1704C37.2168 74 38 73.0464 38 72V71.5C38 69.8431 36.6569 68.5 35 68.5H11C7.96243 68.5 5.5 66.0376 5.5 63V18C5.5 14.9624 7.96243 12.5 11 12.5Z" fill="#E27A11"/>
</svg>
